<?xml version="1.0" encoding="utf-8"?>
<!-- Generator: Adobe Illustrator 28.0.0, SVG Export Plug-In . SVG Version: 6.00 Build 0)  -->
<svg version="1.1" id="Layer_1" xmlns="http://www.w3.org/2000/svg" xmlns:xlink="http://www.w3.org/1999/xlink" x="0px" y="0px"
	 viewBox="0 0 800 800" style="enable-background:new 0 0 800 800;" xml:space="preserve">
<style type="text/css">
	.st0{fill:#FFFFFF;stroke:#000000;stroke-width:25;stroke-miterlimit:125;}
	.st1{fill:#ADADAD;stroke:#000000;stroke-width:25;stroke-miterlimit:125;}
	.st2{fill:none;stroke:#894B28;stroke-width:25;stroke-miterlimit:125;}
	.st3{fill:#FFDC00;stroke:#894B28;stroke-width:25;stroke-miterlimit:125;}
	.st4{fill:none;stroke:#2F2F32;stroke-width:25;stroke-miterlimit:125;}
</style>
<polyline class="st0" points="287.5,100 125,100 125,787.5 675,787.5 675,100 512.5,100 "/>
<polygon class="st1" points="450,62.5 450,12.5 350,12.5 350,62.5 300,62.5 275,162.5 525,162.5 500,62.5 "/>
<line class="st2" x1="312.5" y1="300" x2="587.5" y2="300"/>
<line class="st3" x1="312.5" y1="425" x2="587.5" y2="425"/>
<line class="st2" x1="312.5" y1="550" x2="587.5" y2="550"/>
<line class="st2" x1="312.5" y1="675" x2="587.5" y2="675"/>
<line class="st4" x1="262.5" y1="300" x2="212.5" y2="300"/>
<line class="st4" x1="262.5" y1="425" x2="212.5" y2="425"/>
<line class="st4" x1="262.5" y1="550" x2="212.5" y2="550"/>
<line class="st4" x1="262.5" y1="675" x2="212.5" y2="675"/>
</svg>
